<?xml version="1.0" encoding="UTF-8"?>
<svg id="Capa_1" xmlns="http://www.w3.org/2000/svg" viewBox="0 0 105.412 105.412">
  <path class="cuadro" d="M52.7.375c-3.975,0-7.855.448-11.572,1.289l2.591,24.229c2.822-.95,5.847-1.465,8.981-1.465,3.5,0,6.864.638,9.971,1.804l2.605-24.338c-4.029-.99-8.235-1.519-12.576-1.519Z" fill="#f1f4f9" stroke="#171719" stroke-miterlimit="10" stroke-width=".75"/>
  
  <path class="cuadro" d="M78.002,65.311c-1.324,2.667-3.098,5.171-5.314,7.386-2.475,2.475-5.295,4.393-8.317,5.765l15.377,19.061c3.549-2.149,6.897-4.748,9.957-7.809,2.811-2.811,5.237-5.871,7.271-9.094l-18.974-15.31Z" fill="#f1f4f9" stroke="#171719" stroke-miterlimit="10" stroke-width=".75"/>


</svg>
